# xmcd CD database file
# Copyright (C) 1993-1998 Ti Kan
# 
# Track frame offsets:
#     155
#     17400
#     33780
#     45685
#     78457
#     113700
#     149287
#     187015
#     207317
#     231872
# 
# Disc length: 3398 seconds
# 
# Revision: 1
# Processed by: cddbd v1.4b41PL1 Copyright (c) Steve Scherf et al.
# Submitted via: DiscPlay 4.0.4
# 
DISCID=7e0d440a
DTITLE=Freddie King - Palace of the King
DYEAR=1900
DGENRE=
TTITLE0=Living in the Palace of the King
TTITLE1=Please Accept My Love
TTITLE2=Shake Your Booty Baby
TTITLE3=Mojo Boogie
TTITLE4=Big Legged Woman
TTITLE5=Hey Baby
TTITLE6=Look On Yonder Wall
TTITLE7=Woman Across the River
TTITLE8=Have You Ever Loved a Woman
TTITLE9=Rock Me Baby
EXTD=
EXTT0=
EXTT1=
EXTT2=
EXTT3=
EXTT4=
EXTT5=
EXTT6=
EXTT7=
EXTT8=
EXTT9=
PLAYORDER=
